<svg width="895" height="1082" viewBox="0 0 895 1082" fill="none" xmlns="http://www.w3.org/2000/svg">
<g filter="url(#filter0_d_3_209)">
<path fill-rule="evenodd" clip-rule="evenodd" d="M377.785 440.295C337.905 412.404 288.173 398.635 236.736 404.628C194.355 440.597 177.403 509.547 180.017 580.964C180.383 590.907 181.127 600.885 182.236 610.824L287.623 591.701C287.205 576.789 288.957 561.612 292.987 546.668C303.912 506.161 331.492 467.359 377.785 440.295ZM459.643 560.483C449.645 518.637 427.269 482.623 397.157 455.655C351.713 479.591 325.085 515.327 315.041 552.571C311.905 564.196 310.377 575.968 310.389 587.569L459.643 560.483ZM437.949 710.577C459.539 673.123 469.449 628.697 463.725 582.999L312.445 610.453C312.829 612.579 313.271 614.692 313.761 616.791C318.563 637.241 328.413 656.183 342.881 671.577C364.513 694.599 396.655 709.82 437.949 710.577ZM291.643 810.909C293.385 810.639 295.132 810.343 296.879 810.028C349.263 800.52 393.36 771.891 423.28 732.64C382.085 728.808 349.327 711.745 326.279 687.217C308.992 668.82 297.244 646.281 291.544 622.003C290.963 619.527 290.445 617.037 289.993 614.527L185.411 633.507C187.863 648.036 191.084 662.348 195.028 676.173C203.637 706.353 215.643 734.187 230.511 756.993C247.496 783.053 268.179 802.46 291.643 810.909M115.796 753.78C151.115 788.793 198.708 810.561 249.945 813.103C235.641 801.675 222.744 786.819 211.423 769.453C195.26 744.66 182.296 714.699 173.091 682.424C168.937 667.868 165.541 652.835 162.951 637.58L110.58 647.084C112.683 657.745 114.331 668.453 115.509 679.125C118.311 704.516 118.464 729.755 115.796 753.78M60.8959 656.101C67.3772 683.24 79.0666 707.927 94.6973 729.285C95.2306 713.736 94.5852 697.768 92.8132 681.701C91.6879 671.525 90.1132 661.321 88.0999 651.164L60.8959 656.101ZM59.6906 565.62C69.3839 585.652 77.1812 606.999 82.9479 628.844L56.8106 633.587C53.9052 610.351 55.0359 587.449 59.6906 565.62M198.604 412.739C137.845 431.816 91.0252 477.587 69.0159 534.344C84.9812 562.085 97.2612 592.957 105.493 624.749L159.719 614.912C158.444 603.897 157.595 592.841 157.193 581.835C154.86 518.127 167.46 455.761 198.604 412.739M449.915 419.237C524.729 448.108 611.485 407.519 651.915 341.149L660.753 326.641C607.707 363.549 548.869 391.341 486.671 408.872L449.915 419.237ZM493.188 644.649C532.071 678.023 592.987 672.116 631.516 640.789L639.937 633.94C600.107 644.831 558.737 648.996 517.537 646.264L493.188 644.649ZM324.081 382.601C364.717 400.663 413.885 380.585 438.115 344.947L443.411 337.157C413.009 356.129 379.659 369.893 344.727 377.881L324.081 382.601ZM94.4066 440.185C146.429 362.039 221.833 322.813 295.283 312.855C391.129 299.861 480.072 255.808 548.493 187.445C582.412 153.559 609.241 113.253 627.419 68.8881L628.295 112.14C629.743 183.396 606.272 252.927 561.937 308.731L609.304 285.271C718.251 231.312 790.133 123.331 797.88 2.00013L816.312 56.9401C876.068 234.995 809.891 431.055 654.452 536.473L684.993 533.888C738.387 529.357 788.08 504.749 824.037 465.023L812.137 506.037C774.125 637.069 663.699 734.249 528.899 755.295C479.337 763.035 442.477 774.661 404.221 795.988C420.345 783.612 435.081 768.969 447.928 752.159L462.045 741.495C490.807 719.768 523.744 704.209 558.792 695.792C632.764 678.028 693.909 626.197 723.553 556.136L711.333 564.584C678.129 587.539 641.387 604.896 602.565 615.963C598.923 617.004 595.269 617.991 591.597 618.923C569.2 624.613 547.853 621.359 528.164 609.255C511.553 599.043 500.031 584.929 493.813 567.216C546.457 565.073 595.716 539.451 627.676 496.908L636.597 485.036C590.945 507.525 539.912 516.787 489.268 511.772L475.288 510.387C593.696 478.349 690.424 391.748 734.932 276.449L746.468 246.564C661.121 315.172 560.737 362.592 453.539 384.941L432.436 389.337C460.333 360.033 483.515 326.575 501.149 290.16L514.252 263.101C454.557 317.705 379.78 353.029 299.691 364.456L237.799 373.289L237.812 373.295C184.749 378.404 133.745 401.34 94.4092 440.191L94.4066 440.185Z" fill="#3D50F9"/>
<path d="M291.643 810.909C293.385 810.639 295.132 810.343 296.879 810.028C349.263 800.52 393.36 771.891 423.28 732.64C382.085 728.808 349.327 711.745 326.279 687.217C308.992 668.82 297.244 646.281 291.544 622.003C290.963 619.527 290.445 617.037 289.993 614.527L185.411 633.507C187.863 648.036 191.084 662.348 195.028 676.173C203.637 706.353 215.643 734.187 230.511 756.993C247.496 783.053 268.179 802.46 291.643 810.909M115.796 753.78C151.115 788.793 198.708 810.561 249.945 813.103C235.641 801.675 222.744 786.819 211.423 769.453C195.26 744.66 182.296 714.699 173.091 682.424C168.937 667.868 165.541 652.835 162.951 637.58L110.58 647.084C112.683 657.745 114.331 668.453 115.509 679.125C118.311 704.516 118.464 729.755 115.796 753.78M59.6906 565.62C69.3839 585.652 77.1812 606.999 82.9479 628.844L56.8106 633.587C53.9052 610.351 55.0359 587.449 59.6906 565.62M198.604 412.739C137.845 431.816 91.0252 477.587 69.0159 534.344C84.9812 562.085 97.2612 592.957 105.493 624.749L159.719 614.912C158.444 603.897 157.595 592.841 157.193 581.835C154.86 518.127 167.46 455.761 198.604 412.739M377.785 440.295C337.905 412.404 288.173 398.635 236.736 404.628C194.355 440.597 177.403 509.547 180.017 580.964C180.383 590.907 181.127 600.885 182.236 610.824L287.623 591.701C287.205 576.789 288.957 561.612 292.987 546.668C303.912 506.161 331.492 467.359 377.785 440.295ZM459.643 560.483C449.645 518.637 427.269 482.623 397.157 455.655C351.713 479.591 325.085 515.327 315.041 552.571C311.905 564.196 310.377 575.968 310.389 587.569L459.643 560.483ZM437.949 710.577C459.539 673.123 469.449 628.697 463.725 582.999L312.445 610.453C312.829 612.579 313.271 614.692 313.761 616.791C318.563 637.241 328.413 656.183 342.881 671.577C364.513 694.599 396.655 709.82 437.949 710.577ZM60.8959 656.101C67.3772 683.24 79.0666 707.927 94.6973 729.285C95.2306 713.736 94.5852 697.768 92.8132 681.701C91.6879 671.525 90.1132 661.321 88.0999 651.164L60.8959 656.101ZM449.915 419.237C524.729 448.108 611.485 407.519 651.915 341.149L660.753 326.641C607.707 363.549 548.869 391.341 486.671 408.872L449.915 419.237ZM493.188 644.649C532.071 678.023 592.987 672.116 631.516 640.789L639.937 633.94C600.107 644.831 558.737 648.996 517.537 646.264L493.188 644.649ZM324.081 382.601C364.717 400.663 413.885 380.585 438.115 344.947L443.411 337.157C413.009 356.129 379.659 369.893 344.727 377.881L324.081 382.601ZM94.4066 440.185C146.429 362.039 221.833 322.813 295.283 312.855C391.129 299.861 480.072 255.808 548.493 187.445C582.412 153.559 609.241 113.253 627.419 68.8881L628.295 112.14C629.743 183.396 606.272 252.927 561.937 308.731L609.304 285.271C718.251 231.312 790.133 123.331 797.88 2.00013L816.312 56.9401C876.068 234.995 809.891 431.055 654.452 536.473L684.993 533.888C738.387 529.357 788.08 504.749 824.037 465.023L812.137 506.037C774.125 637.069 663.699 734.249 528.899 755.295C479.337 763.035 442.477 774.661 404.221 795.988C420.345 783.612 435.081 768.969 447.928 752.159L462.045 741.495C490.807 719.768 523.744 704.209 558.792 695.792C632.764 678.028 693.909 626.197 723.553 556.136L711.333 564.584C678.129 587.539 641.387 604.896 602.565 615.963C598.923 617.004 595.269 617.991 591.597 618.923C569.2 624.613 547.853 621.359 528.164 609.255C511.553 599.043 500.031 584.929 493.813 567.216C546.457 565.073 595.716 539.451 627.676 496.908L636.597 485.036C590.945 507.525 539.912 516.787 489.268 511.772L475.288 510.387C593.696 478.349 690.424 391.748 734.932 276.449L746.468 246.564C661.121 315.172 560.737 362.592 453.539 384.941L432.436 389.337C460.333 360.033 483.515 326.575 501.149 290.16L514.252 263.101C454.557 317.705 379.78 353.029 299.691 364.456L237.799 373.289L237.812 373.295C184.749 378.404 133.745 401.34 94.4092 440.191L94.4066 440.185Z" stroke="white" stroke-width="10"/>
</g>
<path d="M8.7 1082H47.56V994.13L70.18 1082H113.39V871.75H70.18V956.14L48.72 871.75H8.7V1082ZM193.691 908.58C196.591 908.58 197.461 910.03 197.461 912.64V958.17C197.461 961.94 195.141 963.68 192.241 963.68H172.521V908.58H193.691ZM198.041 1040.82C198.041 1044.01 197.171 1045.17 193.691 1045.17H172.521V995.58H191.661C195.431 995.58 198.041 997.03 198.041 1001.67V1040.82ZM237.771 897.27C237.771 881.9 229.361 871.75 212.831 871.75H130.761V1082H207.031C231.101 1082 239.801 1072.72 239.801 1049.52V995C239.801 985.72 234.871 977.02 223.271 976.44C234.291 973.54 237.771 965.42 237.771 954.98V897.27ZM323.257 1055.9L327.027 1082H369.367L331.377 871.75H286.427L248.437 1082H290.777L294.547 1055.9H323.257ZM309.047 948.02L318.617 1022.55H299.187L309.047 948.02ZM380.829 1082H459.129L466.379 1042.85H424.039V871.75H380.829V1082ZM479.384 1082H521.434V871.75H479.384V1082ZM538.856 1049.52C538.856 1072.72 547.556 1082 571.626 1082H644.996V960.78H604.106V1043.72H584.966C582.066 1043.72 581.196 1042.27 581.196 1039.66V914.96C581.196 912.35 582.066 910.9 584.966 910.9H631.076L623.826 871.75H563.796C547.266 871.75 538.856 881.9 538.856 897.27V1049.52ZM731.353 1055.9L735.123 1082H777.463L739.473 871.75H694.523L656.533 1082H698.873L702.643 1055.9H731.353ZM717.143 948.02L726.713 1022.55H707.283L717.143 948.02Z" fill="#3D50F9"/>
<path d="M8.7 1082H3.7V1087H8.7V1082ZM47.56 1082V1087H52.56V1082H47.56ZM47.56 994.13L52.4021 992.884L42.56 994.13H47.56ZM70.18 1082L65.3379 1083.25L66.3041 1087H70.18V1082ZM113.39 1082V1087H118.39V1082H113.39ZM113.39 871.75H118.39V866.75H113.39V871.75ZM70.18 871.75V866.75H65.18V871.75H70.18ZM70.18 956.14L65.3342 957.372L75.18 956.14H70.18ZM48.72 871.75L53.5658 870.518L52.6077 866.75H48.72V871.75ZM8.7 871.75V866.75H3.7V871.75H8.7ZM8.7 1087H47.56V1077H8.7V1087ZM52.56 1082V994.13H42.56V1082H52.56ZM42.7179 995.376L65.3379 1083.25L75.0221 1080.75L52.4021 992.884L42.7179 995.376ZM70.18 1087H113.39V1077H70.18V1087ZM118.39 1082V871.75H108.39V1082H118.39ZM113.39 866.75H70.18V876.75H113.39V866.75ZM65.18 871.75V956.14H75.18V871.75H65.18ZM75.0258 954.908L53.5658 870.518L43.8742 872.982L65.3342 957.372L75.0258 954.908ZM48.72 866.75H8.7V876.75H48.72V866.75ZM3.7 871.75V1082H13.7V871.75H3.7ZM172.521 963.68H167.521V968.68H172.521V963.68ZM172.521 908.58V903.58H167.521V908.58H172.521ZM172.521 1045.17H167.521V1050.17H172.521V1045.17ZM172.521 995.58V990.58H167.521V995.58H172.521ZM130.761 871.75V866.75H125.761V871.75H130.761ZM130.761 1082H125.761V1087H130.761V1082ZM223.271 976.44L221.998 971.605L223.021 981.434L223.271 976.44ZM193.691 913.58C194.024 913.58 194.012 913.625 193.805 913.55C193.547 913.457 193.167 913.242 192.838 912.852C192.532 912.488 192.444 912.177 192.431 912.127C192.424 912.099 192.461 912.238 192.461 912.64H202.461C202.461 910.988 202.23 908.48 200.488 906.411C198.577 904.142 195.9 903.58 193.691 903.58V913.58ZM192.461 912.64V958.17H202.461V912.64H192.461ZM192.461 958.17C192.461 958.602 192.394 958.805 192.377 958.849C192.365 958.881 192.386 958.818 192.473 958.735C192.555 958.656 192.619 958.633 192.607 958.637C192.585 958.645 192.471 958.68 192.241 958.68V968.68C194.667 968.68 197.325 967.942 199.404 965.943C201.526 963.902 202.461 961.11 202.461 958.17H192.461ZM192.241 958.68H172.521V968.68H192.241V958.68ZM177.521 963.68V908.58H167.521V963.68H177.521ZM172.521 913.58H193.691V903.58H172.521V913.58ZM193.041 1040.82C193.041 1041.11 193.03 1041.32 193.017 1041.47C193.003 1041.62 192.989 1041.68 192.993 1041.66C193.004 1041.62 193.117 1041.2 193.541 1040.75C193.742 1040.54 193.956 1040.38 194.148 1040.28C194.332 1040.17 194.464 1040.13 194.5 1040.12C194.533 1040.11 194.492 1040.13 194.348 1040.14C194.205 1040.16 193.992 1040.17 193.691 1040.17V1050.17C195.671 1050.17 198.636 1049.91 200.8 1047.63C202.9 1045.41 203.041 1042.52 203.041 1040.82H193.041ZM193.691 1040.17H172.521V1050.17H193.691V1040.17ZM177.521 1045.17V995.58H167.521V1045.17H177.521ZM172.521 1000.58H191.661V990.58H172.521V1000.58ZM191.661 1000.58C192.303 1000.58 192.713 1000.64 192.949 1000.71C193.169 1000.77 193.154 1000.8 193.051 1000.72C192.928 1000.61 192.891 1000.51 192.908 1000.56C192.939 1000.64 193.041 1000.96 193.041 1001.67H203.041C203.041 998.415 202.093 995.248 199.477 993.054C197.041 991.011 194.038 990.58 191.661 990.58V1000.58ZM193.041 1001.67V1040.82H203.041V1001.67H193.041ZM242.771 897.27C242.771 888.71 240.422 880.968 235.152 875.331C229.831 869.64 222.145 866.75 212.831 866.75V876.75C220.046 876.75 224.83 878.935 227.847 882.161C230.914 885.442 232.771 890.46 232.771 897.27H242.771ZM212.831 866.75H130.761V876.75H212.831V866.75ZM125.761 871.75V1082H135.761V871.75H125.761ZM130.761 1087H207.031V1077H130.761V1087ZM207.031 1087C219.509 1087 229.386 1084.63 235.99 1077.98C242.588 1071.34 244.801 1061.54 244.801 1049.52H234.801C234.801 1060.7 232.664 1067.14 228.894 1070.94C225.13 1074.73 218.622 1077 207.031 1077V1087ZM244.801 1049.52V995H234.801V1049.52H244.801ZM244.801 995C244.801 989.537 243.355 983.863 239.814 979.365C236.171 974.737 230.652 971.803 223.52 971.446L223.021 981.434C227.489 981.657 230.235 983.363 231.957 985.55C233.781 987.867 234.801 991.183 234.801 995H244.801ZM224.543 981.275C231.137 979.54 235.921 976.078 238.926 971.135C241.834 966.35 242.771 960.678 242.771 954.98H232.771C232.771 959.722 231.967 963.33 230.38 965.94C228.891 968.392 226.424 970.44 221.998 971.605L224.543 981.275ZM242.771 954.98V897.27H232.771V954.98H242.771ZM323.257 1055.9L328.206 1055.19L327.587 1050.9H323.257V1055.9ZM327.027 1082L322.078 1082.71L322.697 1087H327.027V1082ZM369.367 1082V1087H375.352L374.287 1081.11L369.367 1082ZM331.377 871.75L336.297 870.861L335.555 866.75H331.377V871.75ZM286.427 871.75V866.75H282.25L281.507 870.861L286.427 871.75ZM248.437 1082L243.517 1081.11L242.453 1087H248.437V1082ZM290.777 1082V1087H295.107L295.726 1082.71L290.777 1082ZM294.547 1055.9V1050.9H290.217L289.598 1055.19L294.547 1055.9ZM309.047 948.02L314.006 947.383L304.09 947.364L309.047 948.02ZM318.617 1022.55V1027.55H324.3L323.576 1021.91L318.617 1022.55ZM299.187 1022.55L294.23 1021.89L293.482 1027.55H299.187V1022.55ZM318.308 1056.61L322.078 1082.71L331.976 1081.29L328.206 1055.19L318.308 1056.61ZM327.027 1087H369.367V1077H327.027V1087ZM374.287 1081.11L336.297 870.861L326.457 872.639L364.447 1082.89L374.287 1081.11ZM331.377 866.75H286.427V876.75H331.377V866.75ZM281.507 870.861L243.517 1081.11L253.357 1082.89L291.347 872.639L281.507 870.861ZM248.437 1087H290.777V1077H248.437V1087ZM295.726 1082.71L299.496 1056.61L289.598 1055.19L285.828 1081.29L295.726 1082.71ZM294.547 1060.9H323.257V1050.9H294.547V1060.9ZM304.088 948.657L313.658 1023.19L323.576 1021.91L314.006 947.383L304.088 948.657ZM318.617 1017.55H299.187V1027.55H318.617V1017.55ZM304.144 1023.21L314.004 948.676L304.09 947.364L294.23 1021.89L304.144 1023.21ZM380.829 1082H375.829V1087H380.829V1082ZM459.129 1082V1087H463.288L464.045 1082.91L459.129 1082ZM466.379 1042.85L471.295 1043.76L472.39 1037.85H466.379V1042.85ZM424.039 1042.85H419.039V1047.85H424.039V1042.85ZM424.039 871.75H429.039V866.75H424.039V871.75ZM380.829 871.75V866.75H375.829V871.75H380.829ZM380.829 1087H459.129V1077H380.829V1087ZM464.045 1082.91L471.295 1043.76L461.463 1041.94L454.212 1081.09L464.045 1082.91ZM466.379 1037.85H424.039V1047.85H466.379V1037.85ZM429.039 1042.85V871.75H419.039V1042.85H429.039ZM424.039 866.75H380.829V876.75H424.039V866.75ZM375.829 871.75V1082H385.829V871.75H375.829ZM479.384 1082H474.384V1087H479.384V1082ZM521.434 1082V1087H526.434V1082H521.434ZM521.434 871.75H526.434V866.75H521.434V871.75ZM479.384 871.75V866.75H474.384V871.75H479.384ZM479.384 1087H521.434V1077H479.384V1087ZM526.434 1082V871.75H516.434V1082H526.434ZM521.434 866.75H479.384V876.75H521.434V866.75ZM474.384 871.75V1082H484.384V871.75H474.384ZM644.996 1082V1087H649.996V1082H644.996ZM644.996 960.78H649.996V955.78H644.996V960.78ZM604.106 960.78V955.78H599.106V960.78H604.106ZM604.106 1043.72V1048.72H609.106V1043.72H604.106ZM631.076 910.9V915.9H637.087L635.993 909.99L631.076 910.9ZM623.826 871.75L628.743 870.84L627.985 866.75H623.826V871.75ZM533.856 1049.52C533.856 1061.54 536.069 1071.34 542.667 1077.98C549.271 1084.63 559.148 1087 571.626 1087V1077C560.035 1077 553.527 1074.73 549.763 1070.94C545.993 1067.14 543.856 1060.7 543.856 1049.52H533.856ZM571.626 1087H644.996V1077H571.626V1087ZM649.996 1082V960.78H639.996V1082H649.996ZM644.996 955.78H604.106V965.78H644.996V955.78ZM599.106 960.78V1043.72H609.106V960.78H599.106ZM604.106 1038.72H584.966V1048.72H604.106V1038.72ZM584.966 1038.72C584.632 1038.72 584.644 1038.67 584.852 1038.75C585.11 1038.84 585.49 1039.06 585.818 1039.45C586.124 1039.81 586.213 1040.12 586.226 1040.17C586.233 1040.2 586.196 1040.06 586.196 1039.66H576.196C576.196 1041.31 576.427 1043.82 578.169 1045.89C580.08 1048.16 582.757 1048.72 584.966 1048.72V1038.72ZM586.196 1039.66V914.96H576.196V1039.66H586.196ZM586.196 914.96C586.196 914.558 586.233 914.419 586.226 914.447C586.213 914.497 586.124 914.808 585.818 915.172C585.49 915.562 585.11 915.777 584.852 915.87C584.644 915.945 584.632 915.9 584.966 915.9V905.9C582.757 905.9 580.08 906.462 578.169 908.731C576.427 910.8 576.196 913.308 576.196 914.96H586.196ZM584.966 915.9H631.076V905.9H584.966V915.9ZM635.993 909.99L628.743 870.84L618.91 872.66L626.16 911.81L635.993 909.99ZM623.826 866.75H563.796V876.75H623.826V866.75ZM563.796 866.75C554.482 866.75 546.796 869.64 541.475 875.331C536.205 880.968 533.856 888.71 533.856 897.27H543.856C543.856 890.46 545.713 885.442 548.78 882.161C551.796 878.935 556.581 876.75 563.796 876.75V866.75ZM533.856 897.27V1049.52H543.856V897.27H533.856ZM731.353 1055.9L736.301 1055.19L735.682 1050.9H731.353V1055.9ZM735.123 1082L730.174 1082.71L730.793 1087H735.123V1082ZM777.463 1082V1087H783.447L782.383 1081.11L777.463 1082ZM739.473 871.75L744.393 870.861L743.65 866.75H739.473V871.75ZM694.523 871.75V866.75H690.345L689.602 870.861L694.523 871.75ZM656.533 1082L651.612 1081.11L650.548 1087H656.533V1082ZM698.873 1082V1087H703.202L703.821 1082.71L698.873 1082ZM702.643 1055.9V1050.9H698.313L697.694 1055.19L702.643 1055.9ZM717.143 948.02L722.102 947.383L712.186 947.364L717.143 948.02ZM726.713 1022.55V1027.55H732.396L731.672 1021.91L726.713 1022.55ZM707.283 1022.55L702.326 1021.89L701.578 1027.55H707.283V1022.55ZM726.404 1056.61L730.174 1082.71L740.071 1081.29L736.301 1055.19L726.404 1056.61ZM735.123 1087H777.463V1077H735.123V1087ZM782.383 1081.11L744.393 870.861L734.552 872.639L772.542 1082.89L782.383 1081.11ZM739.473 866.75H694.523V876.75H739.473V866.75ZM689.602 870.861L651.612 1081.11L661.453 1082.89L699.443 872.639L689.602 870.861ZM656.533 1087H698.873V1077H656.533V1087ZM703.821 1082.71L707.591 1056.61L697.694 1055.19L693.924 1081.29L703.821 1082.71ZM702.643 1060.9H731.353V1050.9H702.643V1060.9ZM712.184 948.657L721.754 1023.19L731.672 1021.91L722.102 947.383L712.184 948.657ZM726.713 1017.55H707.283V1027.55H726.713V1017.55ZM712.24 1023.21L722.1 948.676L712.186 947.364L702.326 1021.89L712.24 1023.21Z" fill="white"/>
<defs>
<filter id="filter0_d_3_209" x="46.2173" y="0.40979" width="800.878" height="826.454" filterUnits="userSpaceOnUse" color-interpolation-filters="sRGB">
<feFlood flood-opacity="0" result="BackgroundImageFix"/>
<feColorMatrix in="SourceAlpha" type="matrix" values="0 0 0 0 0 0 0 0 0 0 0 0 0 0 0 0 0 0 127 0" result="hardAlpha"/>
<feOffset dy="4"/>
<feGaussianBlur stdDeviation="2"/>
<feComposite in2="hardAlpha" operator="out"/>
<feColorMatrix type="matrix" values="0 0 0 0 0.920833 0 0 0 0 0.893976 0 0 0 0 0.893976 0 0 0 0.25 0"/>
<feBlend mode="normal" in2="BackgroundImageFix" result="effect1_dropShadow_3_209"/>
<feBlend mode="normal" in="SourceGraphic" in2="effect1_dropShadow_3_209" result="shape"/>
</filter>
</defs>
</svg>
