<svg width="926" height="1085" viewBox="0 0 926 1085" fill="none" xmlns="http://www.w3.org/2000/svg">
<g filter="url(#filter0_d_3_209)">
<path fill-rule="evenodd" clip-rule="evenodd" d="M460.785 438.295C420.905 410.404 371.173 396.635 319.736 402.628C277.355 438.597 260.403 507.547 263.017 578.964C263.383 588.907 264.127 598.885 265.236 608.824L370.623 589.701C370.205 574.789 371.957 559.612 375.987 544.668C386.912 504.161 414.492 465.359 460.785 438.295ZM542.643 558.483C532.645 516.637 510.269 480.623 480.157 453.655C434.713 477.591 408.085 513.327 398.041 550.571C394.905 562.196 393.377 573.968 393.389 585.569L542.643 558.483ZM520.949 708.577C542.539 671.123 552.449 626.697 546.725 580.999L395.445 608.453C395.829 610.579 396.271 612.692 396.761 614.791C401.563 635.241 411.413 654.183 425.881 669.577C447.513 692.599 479.655 707.82 520.949 708.577ZM374.643 808.909C376.385 808.639 378.132 808.343 379.879 808.028C432.263 798.52 476.36 769.891 506.28 730.64C465.085 726.808 432.327 709.745 409.279 685.217C391.992 666.82 380.244 644.281 374.544 620.003C373.963 617.527 373.445 615.037 372.993 612.527L268.411 631.507C270.863 646.036 274.084 660.348 278.028 674.173C286.637 704.353 298.643 732.187 313.511 754.993C330.496 781.053 351.179 800.46 374.643 808.909M198.796 751.78C234.115 786.793 281.708 808.561 332.945 811.103C318.641 799.675 305.744 784.819 294.423 767.453C278.26 742.66 265.296 712.699 256.091 680.424C251.937 665.868 248.541 650.835 245.951 635.58L193.58 645.084C195.683 655.745 197.331 666.453 198.509 677.125C201.311 702.516 201.464 727.755 198.796 751.78M143.896 654.101C150.377 681.24 162.067 705.927 177.697 727.285C178.231 711.736 177.585 695.768 175.813 679.701C174.688 669.525 173.113 659.321 171.1 649.164L143.896 654.101ZM142.691 563.62C152.384 583.652 160.181 604.999 165.948 626.844L139.811 631.587C136.905 608.351 138.036 585.449 142.691 563.62M281.604 410.739C220.845 429.816 174.025 475.587 152.016 532.344C167.981 560.085 180.261 590.957 188.493 622.749L242.719 612.912C241.444 601.897 240.595 590.841 240.193 579.835C237.86 516.127 250.46 453.761 281.604 410.739M532.915 417.237C607.729 446.108 694.485 405.519 734.915 339.149L743.753 324.641C690.707 361.549 631.869 389.341 569.671 406.872L532.915 417.237ZM576.188 642.649C615.071 676.023 675.987 670.116 714.516 638.789L722.937 631.94C683.107 642.831 641.737 646.996 600.537 644.264L576.188 642.649ZM407.081 380.601C447.717 398.663 496.885 378.585 521.115 342.947L526.411 335.157C496.009 354.129 462.659 367.893 427.727 375.881L407.081 380.601ZM177.407 438.185C229.429 360.039 304.833 320.813 378.283 310.855C474.129 297.861 563.072 253.808 631.493 185.445C665.412 151.559 692.241 111.253 710.419 66.8881L711.295 110.14C712.743 181.396 689.272 250.927 644.937 306.731L692.304 283.271C801.251 229.312 873.133 121.331 880.88 0.000129726L899.312 54.9401C959.068 232.995 892.891 429.055 737.452 534.473L767.993 531.888C821.387 527.357 871.08 502.749 907.037 463.023L895.137 504.037C857.125 635.069 746.699 732.249 611.899 753.295C562.337 761.035 525.477 772.661 487.221 793.988C503.345 781.612 518.081 766.969 530.928 750.159L545.045 739.495C573.807 717.768 606.744 702.209 641.792 693.792C715.764 676.028 776.909 624.197 806.553 554.136L794.333 562.584C761.129 585.539 724.387 602.896 685.565 613.963C681.923 615.004 678.269 615.991 674.597 616.923C652.2 622.613 630.853 619.359 611.164 607.255C594.553 597.043 583.031 582.929 576.813 565.216C629.457 563.073 678.716 537.451 710.676 494.908L719.597 483.036C673.945 505.525 622.912 514.787 572.268 509.772L558.288 508.387C676.696 476.349 773.424 389.748 817.932 274.449L829.468 244.564C744.121 313.172 643.737 360.592 536.539 382.941L515.436 387.337C543.333 358.033 566.515 324.575 584.149 288.16L597.252 261.101C537.557 315.705 462.78 351.029 382.691 362.456L320.799 371.289L320.812 371.295C267.749 376.404 216.745 399.34 177.409 438.191L177.407 438.185Z" fill="#3D50F9"/>
<path d="M8.7 1077H47.56V989.13L70.18 1077H113.39V866.75H70.18V951.14L48.72 866.75H8.7V1077ZM193.691 903.58C196.591 903.58 197.461 905.03 197.461 907.64V953.17C197.461 956.94 195.141 958.68 192.241 958.68H172.521V903.58H193.691ZM198.041 1035.82C198.041 1039.01 197.171 1040.17 193.691 1040.17H172.521V990.58H191.661C195.431 990.58 198.041 992.03 198.041 996.67V1035.82ZM237.771 892.27C237.771 876.9 229.361 866.75 212.831 866.75H130.761V1077H207.031C231.101 1077 239.801 1067.72 239.801 1044.52V990C239.801 980.72 234.871 972.02 223.271 971.44C234.291 968.54 237.771 960.42 237.771 949.98V892.27ZM323.257 1050.9L327.027 1077H369.367L331.377 866.75H286.427L248.437 1077H290.777L294.547 1050.9H323.257ZM309.047 943.02L318.617 1017.55H299.187L309.047 943.02ZM380.829 1077H459.129L466.379 1037.85H424.039V866.75H380.829V1077ZM479.384 1077H521.434V866.75H479.384V1077ZM538.856 1044.52C538.856 1067.72 547.556 1077 571.626 1077H644.996V955.78H604.106V1038.72H584.966C582.066 1038.72 581.196 1037.27 581.196 1034.66V909.96C581.196 907.35 582.066 905.9 584.966 905.9H631.076L623.826 866.75H563.796C547.266 866.75 538.856 876.9 538.856 892.27V1044.52ZM731.353 1050.9L735.123 1077H777.463L739.473 866.75H694.523L656.533 1077H698.873L702.643 1050.9H731.353ZM717.143 943.02L726.713 1017.55H707.283L717.143 943.02Z" fill="#3D50F9"/>
</g>
<defs>
<filter id="filter0_d_3_209" x="4.7002" y="0.00012207" width="920.395" height="1085" filterUnits="userSpaceOnUse" color-interpolation-filters="sRGB">
<feFlood flood-opacity="0" result="BackgroundImageFix"/>
<feColorMatrix in="SourceAlpha" type="matrix" values="0 0 0 0 0 0 0 0 0 0 0 0 0 0 0 0 0 0 127 0" result="hardAlpha"/>
<feOffset dy="4"/>
<feGaussianBlur stdDeviation="2"/>
<feComposite in2="hardAlpha" operator="out"/>
<feColorMatrix type="matrix" values="0 0 0 0 0 0 0 0 0 0 0 0 0 0 0 0 0 0 0.25 0"/>
<feBlend mode="normal" in2="BackgroundImageFix" result="effect1_dropShadow_3_209"/>
<feBlend mode="normal" in="SourceGraphic" in2="effect1_dropShadow_3_209" result="shape"/>
</filter>
</defs>
</svg>
